<?xml version="1.0" encoding="utf-8"?>
<!-- Generator: Adobe Illustrator 25.2.3, SVG Export Plug-In . SVG Version: 6.00 Build 0)  -->
<svg version="1.1" id="Calque_1" xmlns="http://www.w3.org/2000/svg" xmlns:xlink="http://www.w3.org/1999/xlink" x="0px" y="0px"
	 viewBox="0 0 595.3 595.3" style="enable-background:new 0 0 595.3 595.3;" xml:space="preserve">
<style type="text/css">
	.st0{fill:#FFFFFF;}
</style>
<g>
	<g>
		<path d="M290.5,397c20.1,36.2,38.4,69.1,57,102.6c53.8-11.7,82-46.6,85.1-103.6c1.4-26.2-11.9-44.2,14.9-79.5
			c22.6-36.7,78.9-35.6,116.3,10.9c14.1,17.5,24,39,11.7,57.6c-9,13.7-29.4,20.8-45.7,28.5c-6.8,3.2-16.5,0.5-26.8-4.8
			c11.8-6,24-11.4,35.3-18.2c23.2-14,25-28.3,7.2-48.6c-29.4-33.6-52-40.1-74.2-18.4c-8.6,8.4-14.2,22-16.5,34.1
			c-2.8,14.8-0.8,30.5-0.6,45.8c0.5,38.3-13.4,71.5-46,90c-51.2,29.1-101,68.7-166.9,47.8c-4.5-1.4-9.1-2.6-13.5-4.3
			c-3.5-1.3-6.8-3.2-7.2-3.3c7.5-45.9,14.8-90.2,22.3-136c-24.2-1.7-45-0.7-64.7-5c-24.7-5.5-50.4-11.9-72.3-24
			C35.3,329.8,22,264.2,76.3,205.4c25.1-27.1,36.7-56,43.5-89.7c2-10.1,5.2-20,9.1-35c7.1,10.8,13.8,17.4,16.4,25.4
			c11.1,32.8,34.4,35.5,64.7,33.5c44.9-3,90.2-0.8,139.7-0.8c8-13.9,19.1-33.2,33.1-57.3c3.8,19,6.5,31.8,8.8,44.7
			c5,28.2,11.2,54.2,32.7,76.9c30.2,31.9,30.8,72.2,17.1,112.8C441.3,316,425.9,386.3,290.5,397z M360.3,309.1
			c2.6,2.5,5.2,4.9,7.9,7.4c17.6-18.2,43.5-34,49.9-55.5c3.9-13.2-22.1-35.4-34.6-53.5C390.4,247.5,394,281.7,360.3,309.1z
			 M322.9,207.3c-2.4-1.9-4.7-3.8-7.1-5.7c-12.7,19.9-32.9,39-35.4,60.2c-1.5,13,24,29.1,37.4,43.9c2-1.7,4-3.4,6-5.1
			C303.5,269.8,302.7,238.7,322.9,207.3z M187.6,211.7c-2.8,1.6-5.6,3.1-8.3,4.6c12.1,34.8,10.4,67.1-15,97.1
			c21.3-15.2,44.8-30.8,52.9-52.2C221.4,250.1,198.4,228.6,187.6,211.7z M120.3,208.7c-2.5-1.3-5-2.6-7.5-3.8
			c-12,18.5-33.5,37.2-33,55.4c0.4,16.1,25.2,31.6,39.2,47.3c1.9-1.9,3.9-3.8,5.8-5.7C102.2,272.1,102.4,240.9,120.3,208.7z"/>
		<path class="st0" d="M360.3,309.1c33.7-27.4,30.1-61.7,23.1-101.6c12.5,18.1,38.5,40.3,34.6,53.5c-6.4,21.6-32.2,37.3-49.9,55.5
			C365.5,314.1,362.9,311.6,360.3,309.1z"/>
		<path class="st0" d="M322.9,207.3c-20.2,31.3-19.4,62.4,1,93.3c-2,1.7-4,3.4-6,5.1c-13.4-14.7-39-30.9-37.4-43.9
			c2.5-21.2,22.7-40.2,35.4-60.2C318.1,203.6,320.5,205.4,322.9,207.3z"/>
		<path class="st0" d="M187.6,211.7c10.7,16.8,33.7,38.4,29.5,49.5c-8.1,21.4-31.6,37-52.9,52.2c25.4-30,27.1-62.2,15-97.1
			C182.1,214.8,184.9,213.3,187.6,211.7z"/>
		<path class="st0" d="M120.3,208.7c-17.9,32.2-18,63.3,4.5,93.1c-1.9,1.9-3.9,3.8-5.8,5.7c-14-15.8-38.8-31.2-39.2-47.3
			c-0.4-18.2,21.1-36.9,33-55.4C115.3,206.2,117.8,207.4,120.3,208.7z"/>
	</g>
</g>
</svg>
