<?xml version="1.0" encoding="utf-8"?>
<!-- Generator: Adobe Illustrator 25.2.3, SVG Export Plug-In . SVG Version: 6.00 Build 0)  -->
<svg version="1.1" id="Calque_1" xmlns="http://www.w3.org/2000/svg" xmlns:xlink="http://www.w3.org/1999/xlink" x="0px" y="0px"
	 viewBox="0 0 595.28 841.89" style="enable-background:new 0 0 595.28 841.89;" xml:space="preserve">
<style type="text/css">
	.st0{fill:#FFFFFF;}
	.st1{fill:#EB5D27;}
</style>
<g>
	<g>
		<path class="st0" d="M429.95,425.71l-2.02-1.96c13.72-40.64,13.13-80.97-17.09-112.85c-21.55-22.74-27.73-48.74-32.73-76.9
			c-2.29-12.86-5-25.64-8.75-44.68c-13.91,24.1-25.02,43.37-33.06,57.3c-49.5,0-94.76-2.25-139.66,0.79
			c-30.34,2.05-53.66-0.66-64.71-33.47c-2.69-7.99-9.31-14.65-16.44-25.4c-3.92,14.97-7.03,24.87-9.07,34.99
			c-6.79,33.71-18.41,62.54-43.49,89.68c-54.36,58.83-41.08,124.38,29.4,163.24c21.94,12.09,47.6,18.48,72.32,23.97
			c19.67,4.37,40.51,3.39,64.67,5.05c-7.49,45.77-14.75,90.08-22.27,135.97c0.44,0.21,3.74,2.05,7.23,3.35
			c4.41,1.65,8.99,2.86,13.49,4.28c65.95,20.9,115.67-18.71,166.91-47.81c32.61-18.52,46.5-51.73,46.01-89.98
			c-0.2-15.3-2.16-31.01,0.64-45.78c2.3-12.13,7.91-25.76,16.5-34.12c22.26-21.67,44.83-15.19,74.24,18.42
			c17.76,20.3,15.92,34.55-7.23,48.57c-11.3,6.85-23.49,12.21-35.28,18.25c10.33,5.34,19.95,8.03,26.8,4.8
			c16.36-7.73,36.67-14.75,45.72-28.5c12.28-18.64,2.39-40.09-11.71-57.65C512.97,388.69,471.98,385.28,429.95,425.71z"/>
		<path d="M429.95,425.71c42.03-40.43,83.02-37.02,120.45,9.56c14.1,17.55,23.99,39,11.71,57.65c-9.05,13.74-29.36,20.77-45.72,28.5
			c-6.85,3.23-16.47,0.54-26.8-4.8c11.79-6.04,23.98-11.4,35.28-18.25c23.15-14.02,24.99-28.27,7.23-48.57
			c-29.41-33.61-51.98-40.09-74.24-18.42c-8.58,8.36-14.2,21.99-16.5,34.12c-2.8,14.77-0.84,30.48-0.64,45.78
			c0.5,38.26-13.4,71.46-46.01,89.98c-51.24,29.11-100.95,68.72-166.91,47.81c-4.5-1.43-9.08-2.63-13.49-4.28
			c-3.49-1.31-6.79-3.15-7.23-3.35c7.51-45.89,14.77-90.2,22.27-135.97c-24.17-1.66-45.01-0.68-64.67-5.05
			c-24.73-5.49-50.39-11.88-72.32-23.97C21.87,437.58,8.59,372.03,62.95,313.2c25.08-27.14,36.69-55.97,43.49-89.68
			c2.04-10.12,5.15-20.02,9.07-34.99c7.12,10.76,13.75,17.41,16.44,25.4c11.05,32.81,34.37,35.52,64.71,33.47
			c44.9-3.04,90.16-0.79,139.66-0.79c8.03-13.92,19.15-33.19,33.06-57.3c3.75,19.04,6.47,31.82,8.75,44.68
			c5,28.16,11.18,54.17,32.73,76.9c30.22,31.88,30.81,72.21,17.09,112.85c-34.31,56.1-89.64,74.65-150.88,81.05
			c20.12,36.21,38.42,69.15,57.01,102.61c53.84-11.66,82.05-46.62,85.14-103.58C420.61,477.67,426.23,451.74,429.95,425.71z
			 M346.89,416.92c2.62,2.47,5.23,4.94,7.85,7.42c17.64-18.21,43.49-33.96,49.88-55.53c3.91-13.21-22.06-35.36-34.61-53.49
			C376.97,355.26,380.6,389.52,346.89,416.92z M309.48,315.15c-2.36-1.89-4.71-3.79-7.07-5.68c-12.71,19.95-32.85,39.02-35.36,60.19
			c-1.53,12.95,24.02,29.14,37.41,43.88c1.99-1.7,3.98-3.41,5.97-5.11C290.08,377.56,289.31,346.47,309.48,315.15z M174.27,319.52
			c-2.78,1.55-5.55,3.1-8.33,4.65c12.1,34.85,10.37,67.13-15,97.08c21.29-15.21,44.78-30.78,52.86-52.22
			C208,357.88,184.99,336.36,174.27,319.52z M106.9,316.54c-2.5-1.28-5-2.56-7.5-3.84c-11.97,18.48-33.48,37.19-33.05,55.39
			c0.37,16.07,25.19,31.57,39.22,47.32c1.94-1.91,3.88-3.81,5.82-5.72C88.86,379.88,89.04,348.74,106.9,316.54z"/>
		<path class="st1" d="M346.89,416.92c33.71-27.41,30.07-61.66,23.12-101.61c12.55,18.13,38.52,40.28,34.61,53.49
			c-6.39,21.58-32.24,37.33-49.88,55.53C352.13,421.87,349.51,419.39,346.89,416.92z"/>
		<path class="st1" d="M309.48,315.15c-20.17,31.32-19.4,62.41,0.95,93.27c-1.99,1.7-3.98,3.41-5.97,5.11
			c-13.39-14.74-38.95-30.93-37.41-43.88c2.51-21.18,22.66-40.24,35.36-60.19C304.76,311.36,307.12,313.25,309.48,315.15z"/>
		<path class="st1" d="M174.27,319.52c10.72,16.84,33.74,38.36,29.53,49.51c-8.08,21.44-31.58,37.01-52.86,52.22
			c25.37-29.95,27.1-62.23,15-97.08C168.72,322.62,171.49,321.07,174.27,319.52z"/>
		<path class="st1" d="M106.9,316.54c-17.87,32.2-18.05,63.34,4.49,93.14c-1.94,1.91-3.88,3.81-5.82,5.72
			c-14.03-15.75-38.85-31.25-39.22-47.32c-0.42-18.19,21.08-36.9,33.05-55.39C101.91,313.97,104.41,315.26,106.9,316.54z"/>
	</g>
</g>
</svg>
